<?xml version="1.0" encoding="UTF-8"?><svg id="Capa_1" xmlns="http://www.w3.org/2000/svg" viewBox="0 0 319.88 283.99"><defs><style>.cls-1{fill:#c7ffbe;}</style></defs><path class="cls-1" d="M246.88,54.11h0c7.58,0,13.74,6.16,13.74,13.74v8.62H59.27v-8.62c0-7.58,6.16-13.74,13.74-13.74H246.88m-5.11,17.9c3.7,0,6.72-3.01,6.72-6.72s-3.01-6.72-6.72-6.72-6.72,3.01-6.72,6.72,3.01,6.72,6.72,6.72m-15.34,0c3.7,0,6.72-3.01,6.72-6.72s-3.01-6.72-6.72-6.72-6.72,3.01-6.72,6.72,3.01,6.72,6.72,6.72m-15.34,0c3.7,0,6.72-3.01,6.72-6.72s-3.01-6.72-6.72-6.72-6.72,3.01-6.72,6.72,3.01,6.72,6.72,6.72m49.54,17.9v126.24c0,7.58-6.16,13.74-13.74,13.74H73.01c-7.58,0-13.74-6.16-13.74-13.74V89.9h201.35m-110.9,99.72c2.76,0,5.21-1.66,6.23-4.22l20.46-51.14c1.37-3.44-.3-7.36-3.74-8.73-.8-.32-1.64-.48-2.49-.48-2.76,0-5.21,1.66-6.24,4.22l-20.46,51.14h0c-.67,1.67-.64,3.49,.06,5.14,.71,1.65,2.01,2.92,3.68,3.59,.8,.32,1.64,.48,2.49,.48m-17.9-5.11c1.8,0,3.48-.7,4.75-1.97,1.27-1.27,1.97-2.95,1.97-4.75s-.7-3.48-1.97-4.75l-15.7-15.71,15.7-15.71c1.27-1.27,1.97-2.95,1.97-4.75s-.7-3.48-1.97-4.75c-1.27-1.27-2.95-1.97-4.75-1.97s-3.48,.7-4.75,1.97l-20.46,20.46c-2.62,2.62-2.62,6.88,0,9.5l20.45,20.45c1.27,1.27,2.95,1.97,4.75,1.97m67.21-27.17l-15.7,15.71c-1.27,1.27-1.97,2.95-1.97,4.75s.7,3.48,1.97,4.75c1.27,1.27,2.95,1.97,4.75,1.97s3.48-.7,4.75-1.97l20.46-20.46c1.27-1.27,1.97-2.95,1.97-4.75s-.7-3.48-1.97-4.75l-20.45-20.45c-1.27-1.27-2.95-1.97-4.75-1.97s-3.48,.7-4.75,1.97c-1.27,1.27-1.97,2.95-1.97,4.75s.7,3.48,1.97,4.75l15.71,15.71m47.85-104.83h0Zm0,0H73.01c-8.46,0-15.34,6.88-15.34,15.34v10.23h204.55v-10.23c0-8.46-6.88-15.34-15.34-15.34h0Zm-5.11,17.9c-2.83,0-5.11-2.29-5.11-5.11s2.29-5.11,5.11-5.11,5.11,2.29,5.11,5.11-2.29,5.11-5.11,5.11h0Zm-15.34,0c-2.83,0-5.11-2.29-5.11-5.11s2.29-5.11,5.11-5.11,5.11,2.29,5.11,5.11-2.29,5.11-5.11,5.11h0Zm-15.34,0c-2.83,0-5.11-2.29-5.11-5.11s2.29-5.11,5.11-5.11,5.11,2.29,5.11,5.11-2.29,5.11-5.11,5.11h0Zm51.14,17.9H57.67v127.84c0,8.46,6.88,15.34,15.34,15.34H246.88c8.46,0,15.34-6.88,15.34-15.34V88.3h0Zm-117.25,92.7l20.46-51.14c.8-2,2.72-3.22,4.75-3.22,.63,0,1.28,.12,1.9,.37,2.62,1.05,3.9,4.02,2.85,6.65l-20.46,51.14c-.8,2-2.72,3.22-4.75,3.22-.64,0-1.28-.12-1.9-.37-2.63-1.05-3.9-4.02-2.85-6.65h0Zm-13.15,1.9c-1.31,0-2.62-.5-3.62-1.5l-20.46-20.46c-2-2-2-5.23,0-7.23l20.46-20.46c1-1,2.31-1.5,3.62-1.5s2.62,.5,3.62,1.5c2,2,2,5.23,0,7.23l-16.84,16.84,16.84,16.84c2,2,2,5.23,0,7.23-1,1-2.31,1.5-3.62,1.5h0Zm56.25,0c-1.31,0-2.62-.5-3.62-1.5-2-2-2-5.23,0-7.23l16.84-16.84-16.84-16.84c-2-2-2-5.23,0-7.23,1-1,2.31-1.5,3.62-1.5s2.62,.5,3.62,1.5l20.46,20.46c2,2,2,5.23,0,7.23l-20.46,20.46c-1,1-2.3,1.5-3.61,1.5h0Z"/></svg>