<?xml version="1.0" encoding="UTF-8"?><svg id="Capa_1" xmlns="http://www.w3.org/2000/svg" viewBox="0 0 319.88 283.99"><defs><style>.cls-1{fill:#c7ffbe;}</style></defs><g><path class="cls-1" d="M145.14,28.97c.82,0,1.67,.62,1.67,1.65v10.82l1.58,.03c6.77,.11,11.62,.25,14.02,.4,25.57,1.56,49.4,13.29,67.09,33.02,17.59,19.61,27.27,44.99,27.27,71.45s-9.89,51.77-27.85,71.22c-1.06,1.15-2.55,1.8-4.09,1.8h-33.06c-.8,0-1.02-.65-1.08-.84-.06-.24-.14-.84,.5-1.2,25.77-14.38,41.78-41.57,41.78-70.98,0-39-27.82-72.55-66.14-79.78-1.41-.27-3.23-.5-4.63-.59-1.42-.09-3.46-.14-6.04-.14-3.9,0-7.76,.11-7.8,.11l-1.56,.04v11.57c0,1.03-.85,1.65-1.67,1.65-.31,0-.76-.09-1.17-.52l-22.32-23.47c-.6-.64-.6-1.63,0-2.27l22.32-23.47c.41-.43,.86-.52,1.17-.52m0-1.6c-.82,0-1.66,.31-2.33,1.02l-22.32,23.47c-1.19,1.25-1.19,3.22,0,4.48l22.32,23.47c.67,.7,1.51,1.02,2.33,1.02,1.67,0,3.27-1.29,3.27-3.25v-10.02s3.84-.11,7.76-.11c2.16,0,4.35,.03,5.94,.14,1.37,.09,3.1,.31,4.44,.57,36.86,6.95,64.83,39.36,64.83,78.2,0,29.88-16.55,55.96-40.95,69.58-2.42,1.35-1.41,5.05,1.35,5.05h33.06c2,0,3.91-.85,5.27-2.32,17.55-19,28.27-44.4,28.27-72.31,0-55.26-41.87-102.78-95.87-106.07-2.97-.18-8.87-.31-14.09-.4v-9.25c0-1.96-1.61-3.25-3.27-3.25h0Z"/><path class="cls-1" d="M115.22,47.85c-3.13,3.81-2.97,9.4,.49,13.03l7.83,8.23c.23,.24,.21,.52,.18,.66-.03,.12-.13,.4-.47,.53-15.31,5.76-28.42,15.9-37.9,29.32-9.7,13.74-14.82,29.89-14.82,46.72,0,29.4,16.01,56.6,41.78,70.98,.64,.36,.57,.96,.5,1.2-.05,.2-.28,.84-1.08,.84h-33.06c-1.54,0-3.03-.66-4.09-1.8-17.96-19.45-27.85-44.74-27.85-71.22,0-22,6.73-43.05,19.45-60.9,12.31-17.27,29.26-30.25,49.04-37.59m.64-1.85c-.16,0-.33,.03-.51,.09-40.96,14.88-70.22,54.14-70.22,100.24,0,27.91,10.73,53.31,28.27,72.31,1.36,1.47,3.26,2.32,5.27,2.32h33.06c2.77,0,3.77-3.7,1.35-5.05-24.41-13.62-40.95-39.7-40.95-69.58,0-34.08,21.52-63.21,51.68-74.55,1.57-.59,2.04-2.58,.88-3.79l-7.83-8.23c-3.03-3.18-3.03-8.19,0-11.37,.9-.95,.14-2.4-1.01-2.4h0Z"/></g><path class="cls-1" d="M246.38,214.92c.36,0,.69,.13,.97,.39l25.31,23.08c.31,.28,.48,.67,.48,1.08s-.17,.8-.48,1.08l-25.31,23.08c-.28,.26-.61,.39-.97,.39-.62,0-1.49-.46-1.49-1.47v-11.44H49.66c-1.48,0-2.68-1.2-2.68-2.68v-17.92c0-1.48,1.2-2.68,2.68-2.68H244.89v-11.44c0-1.02,.87-1.47,1.49-1.47m0-1.86c-1.72,0-3.35,1.34-3.35,3.34v9.58H49.66c-2.51,0-4.54,2.03-4.54,4.54v17.92c0,2.51,2.03,4.54,4.54,4.54H243.03v9.58c0,2,1.63,3.34,3.35,3.34,.77,0,1.56-.27,2.22-.88l25.31-23.08c1.45-1.32,1.45-3.6,0-4.92l-25.31-23.08c-.66-.6-1.45-.88-2.22-.88h0Z"/></svg>