<?xml version="1.0" encoding="UTF-8"?><svg id="Capa_1" xmlns="http://www.w3.org/2000/svg" viewBox="0 0 319.88 283.99"><defs><style>.cls-1{fill:#c7ffbe;}</style></defs><path class="cls-1" d="M207.75,81.71c10.28,0,18.65,8.37,18.65,18.65v16.88c0,2.84-2.31,5.15-5.15,5.15s-5.15-2.31-5.15-5.15v-16.88c0-4.61-3.75-8.35-8.35-8.35h-16.88c-2.84,0-5.15-2.31-5.15-5.15s2.31-5.15,5.15-5.15h16.88m-77.64,0c2.84,0,5.15,2.31,5.15,5.15s-2.31,5.15-5.15,5.15h-16.88c-4.61,0-8.35,3.75-8.35,8.35v16.88c0,2.84-2.31,5.15-5.15,5.15s-5.15-2.31-5.15-5.15v-16.88c0-10.28,8.37-18.65,18.65-18.65h16.88m91.14,91.14c2.84,0,5.15,2.31,5.15,5.15v16.88c0,10.28-8.37,18.65-18.65,18.65h-16.88c-2.84,0-5.15-2.31-5.15-5.15s2.31-5.15,5.15-5.15h16.88c4.61,0,8.35-3.75,8.35-8.35v-16.88c0-2.84,2.31-5.15,5.15-5.15m-121.52,0c2.84,0,5.15,2.31,5.15,5.15v16.88c0,4.61,3.75,8.35,8.35,8.35h16.88c2.84,0,5.15,2.31,5.15,5.15s-2.31,5.15-5.15,5.15h-16.88c-10.28,0-18.65-8.37-18.65-18.65v-16.88c0-2.84,2.31-5.15,5.15-5.15m108.02-92.75h-16.88c-3.73,0-6.75,3.02-6.75,6.75s3.02,6.75,6.75,6.75h16.88c3.73,0,6.75,3.02,6.75,6.75v16.88c0,3.73,3.02,6.75,6.75,6.75s6.75-3.02,6.75-6.75v-16.88c0-11.19-9.07-20.25-20.25-20.25h0Zm-77.64,0h-16.88c-11.19,0-20.25,9.07-20.25,20.25v16.88c0,3.73,3.02,6.75,6.75,6.75s6.75-3.02,6.75-6.75v-16.88c0-3.73,3.02-6.75,6.75-6.75h16.88c3.73,0,6.75-3.02,6.75-6.75s-3.02-6.75-6.75-6.75h0Zm91.14,91.14c-3.73,0-6.75,3.02-6.75,6.75v16.88c0,3.73-3.02,6.75-6.75,6.75h-16.88c-3.73,0-6.75,3.02-6.75,6.75s3.02,6.75,6.75,6.75h16.88c11.19,0,20.25-9.07,20.25-20.25v-16.88c0-3.73-3.02-6.75-6.75-6.75h0Zm-121.52,0c-3.73,0-6.75,3.02-6.75,6.75v16.88c0,11.19,9.07,20.25,20.25,20.25h16.88c3.73,0,6.75-3.02,6.75-6.75s-3.02-6.75-6.75-6.75h-16.88c-3.73,0-6.75-3.02-6.75-6.75v-16.88c0-3.73-3.02-6.75-6.75-6.75h0Z"/></svg>