<?xml version="1.0" encoding="UTF-8"?><svg id="Capa_1" xmlns="http://www.w3.org/2000/svg" viewBox="0 0 319.88 283.99"><defs><style>.cls-1{fill:#c7ffbe;}</style></defs><path class="cls-1" d="M103.15,41.7V112.28c0,1.56,.61,3.03,1.71,4.14,1.1,1.1,2.57,1.71,4.14,1.71h21.23c8.5,0,16.42,4.57,20.67,11.94,4.25,7.36,4.25,16.51,0,23.87-4.25,7.36-12.17,11.94-20.67,11.94h-21.23c-3.22,0-5.85,2.62-5.85,5.85v70.57h-23.87c-4.11,0-7.97-1.6-10.88-4.5-2.9-2.91-4.5-6.77-4.5-10.88V57.08c0-4.11,1.6-7.97,4.5-10.88,2.91-2.9,6.77-4.5,10.88-4.5h23.87m1.6-1.6h-25.47c-4.5,0-8.82,1.79-12.01,4.97-3.18,3.19-4.97,7.51-4.97,12.01V226.91c0,4.5,1.79,8.82,4.97,12.01,3.19,3.18,7.51,4.97,12.01,4.97h25.47v-72.17c0-2.34,1.9-4.25,4.25-4.25h21.23c9.1,0,17.51-4.86,22.06-12.74,4.55-7.88,4.55-17.59,0-25.47-4.55-7.88-12.96-12.74-22.06-12.74h-21.23c-1.13,0-2.21-.45-3-1.24s-1.24-1.88-1.24-3V40.1h0Z"/><path class="cls-1" d="M232.12,41.7c6.38,0,12.37,2.48,16.88,6.99,4.51,4.51,6.99,10.51,6.99,16.88V218.42c0,6.38-2.48,12.37-6.99,16.88-4.51,4.51-10.51,6.99-16.88,6.99h-55.19c-.7,0-1.38-.28-1.87-.77-.49-.49-.77-1.17-.77-1.87v-67.93c0-1.46,1.19-2.64,2.64-2.64h21.23c9.64,0,18.63-5.19,23.45-13.54,4.82-8.35,4.82-18.73,0-27.08-4.82-8.35-13.8-13.54-23.45-13.54h-21.23c-.7,0-1.38-.28-1.87-.77-.49-.49-.77-1.17-.77-1.87V44.35c0-1.46,1.19-2.64,2.64-2.64h55.19m0-1.6h-55.19c-2.34,0-4.25,1.9-4.25,4.25V112.28c0,1.13,.45,2.21,1.24,3s1.88,1.24,3,1.24h21.23c9.1,0,17.51,4.86,22.06,12.74,4.55,7.88,4.55,17.59,0,25.47-4.55,7.88-12.96,12.74-22.06,12.74h-21.23c-2.34,0-4.25,1.9-4.25,4.25v67.93c0,1.13,.45,2.21,1.24,3,.8,.8,1.88,1.24,3,1.24h55.19c6.76,0,13.23-2.68,18.01-7.46,4.78-4.78,7.46-11.26,7.46-18.01V65.58c0-6.76-2.68-13.23-7.46-18.01-4.78-4.78-11.26-7.46-18.01-7.46h0Z"/></svg>