<?xml version="1.0" encoding="UTF-8"?><svg id="Capa_1" xmlns="http://www.w3.org/2000/svg" viewBox="0 0 319.88 283.99"><defs><style>.cls-1{fill:#c7ffbe;}</style></defs><g><path class="cls-1" d="M234.89,113.75v6.04l1.14,.34c5.77,1.74,8.82,5.59,8.82,11.14,0,4.32-1.79,7.53-5.18,9.29l-3.2,1.66,3.38,1.27c4.42,1.66,6.75,5.2,6.75,10.25,0,6.38-3.82,11.02-10.49,12.72l-1.21,.31v5.7h-5.28v-5.31h-7.65v5.31h-5.28v-5.31h-3.06v-47.99h3.06v-5.43h5.28v5.43h7.65v-5.43h5.28m-12.92,25.46h7.86c4.27,0,7.03-2.57,7.03-6.54s-2.76-6.54-7.03-6.54h-7.86v13.08m0,21.01h8.49c4.72,0,7.65-2.72,7.65-7.1s-2.93-7.1-7.65-7.1h-8.49v14.2m14.53-48.06h-8.48v5.43h-4.44v-5.43h-8.48v5.43h-3.06v51.19h3.06v5.31h8.48v-5.31h4.44v5.31h8.48v-6.06c7.22-1.85,11.7-7.05,11.7-14.27,0-5.7-2.78-9.88-7.79-11.75,3.89-2.02,6.05-5.77,6.05-10.71,0-6.32-3.65-10.77-9.96-12.67v-6.46h0Zm-12.92,25.46v-9.88h6.26c3.41,0,5.43,1.88,5.43,4.94s-2.02,4.94-5.43,4.94h-6.26Zm0,21.01v-10.99h6.89c3.83,0,6.05,2.02,6.05,5.49s-2.23,5.5-6.05,5.5h-6.89Z"/><path class="cls-1" d="M229.42,81.05c34.22,0,62.07,27.84,62.07,62.07s-27.84,62.07-62.07,62.07-62.07-27.84-62.07-62.07,27.84-62.07,62.07-62.07m0-1.6c-35.11,0-63.67,28.56-63.67,63.67s28.56,63.67,63.67,63.67,63.67-28.56,63.67-63.67-28.56-63.67-63.67-63.67h0Z"/><path class="cls-1" d="M229.42,88.96c29.86,0,54.16,24.29,54.16,54.16s-24.29,54.16-54.16,54.16-54.16-24.29-54.16-54.16,24.29-54.16,54.16-54.16m0-1.6c-30.8,0-55.76,24.96-55.76,55.76s24.96,55.76,55.76,55.76,55.76-24.96,55.76-55.76-24.96-55.76-55.76-55.76h0Z"/></g><path class="cls-1" d="M90.71,81.05c34.22,0,62.07,27.84,62.07,62.07s-27.84,62.07-62.07,62.07-62.07-27.84-62.07-62.07,27.84-62.07,62.07-62.07m0-1.6c-35.11,0-63.67,28.56-63.67,63.67s28.56,63.67,63.67,63.67,63.67-28.56,63.67-63.67-28.56-63.67-63.67-63.67h0Z"/><path class="cls-1" d="M90.71,88.96c29.86,0,54.16,24.29,54.16,54.16s-24.29,54.16-54.16,54.16-54.16-24.29-54.16-54.16,24.29-54.16,54.16-54.16m0-1.6c-30.8,0-55.76,24.96-55.76,55.76s24.96,55.76,55.76,55.76,55.76-24.96,55.76-55.76-24.96-55.76-55.76-55.76h0Z"/><g><path class="cls-1" d="M75.58,117.84c12.13,0,18.02,4.66,18.02,14.23,0,6.34-2.73,10.79-8.11,13.22l-1.6,.72,.86,1.53,10.15,17.95h-9.15l-9.26-17.45-.45-.85h-8.89v18.3h-8.29v-47.65h16.71m-8.42,23.42h7.48c6.93,0,10.9-3.35,10.9-9.19,0-7.45-6.22-8.31-10.9-8.31h-7.48v17.5m8.42-25.03h-18.31v50.85h11.5v-18.3h6.32l9.71,18.3h12.86l-11.51-20.34c5.43-2.45,9.05-7.2,9.05-14.68,0-12.09-8.84-15.83-19.63-15.83h0Zm-6.82,23.42v-14.3h5.88c6.05,0,9.3,1.68,9.3,6.71s-3.25,7.59-9.3,7.59h-5.88Z"/><path class="cls-1" d="M117.85,110.56v7.67l1.36,.21c3.63,.55,6.72,2.1,9.63,4.86l-3.71,4.25c-2.21-1.81-4.81-3.28-8.34-3.28-6.43,0-7.39,4.15-7.39,6.62,0,4.09,4.17,6.09,8.58,8.2,5.64,2.7,12.02,5.77,12.02,13.5,0,7.02-3.96,11.89-10.87,13.36l-1.27,.27v7.86h-4.41v-7.62l-1.41-.17c-3.41-.41-8.15-1.84-11.8-4.66l3.32-5.14c3.84,2.68,7.19,3.89,10.7,3.89,6.59,0,7.97-3.8,7.97-6.99,0-4.44-4.39-6.67-9.03-9.03-5.69-2.89-11.56-5.89-11.56-12.93s3.84-11.5,10.53-12.84l1.29-.26v-7.77h4.41m1.6-1.6h-7.61v8.05c-7.35,1.46-11.82,6.76-11.82,14.41,0,14.08,20.6,13.94,20.6,21.96,0,3.55-1.95,5.39-6.37,5.39-3.69,0-7.16-1.55-11.12-4.59l-5,7.76c3.73,3.38,9.15,5.39,13.72,5.93v7.8h7.61v-8.16c8.01-1.7,12.14-7.45,12.14-14.92,0-14.91-20.6-14.27-20.6-21.71,0-3.51,2.04-5.02,5.79-5.02,3.26,0,5.66,1.36,8.5,3.94l5.74-6.57c-3.01-3.2-6.64-5.63-11.58-6.37v-7.89h0Z"/></g><g><path class="cls-1" d="M122.79,76.04l-.57-1.11c11.75-6,24.44-9.04,37.72-9.04,12.44,0,24.4,2.68,35.55,7.97l-.53,1.12c-10.99-5.21-22.77-7.85-35.02-7.85-13.08,0-25.59,2.99-37.16,8.9Z"/><polygon class="cls-1" points="189.35 77.35 188.96 76.17 194.79 74.25 192.45 68.58 193.6 68.11 196.45 75.02 189.35 77.35"/></g><g><path class="cls-1" d="M159.01,218.09c-12.44,0-24.4-2.68-35.55-7.97l.53-1.12c10.99,5.21,22.77,7.85,35.02,7.85,13.08,0,25.59-2.99,37.16-8.9l.57,1.11c-11.75,6-24.44,9.03-37.72,9.03Z"/><polygon class="cls-1" points="129.61 206.64 130 207.82 124.17 209.74 126.51 215.41 125.35 215.88 122.51 208.97 129.61 206.64"/></g></svg>