<?xml version="1.0" encoding="UTF-8"?><svg id="Capa_1" xmlns="http://www.w3.org/2000/svg" viewBox="0 0 319.88 283.99"><defs><style>.cls-1{fill:#c7ffbe;}</style></defs><path class="cls-1" d="M159.94,45.44c53.24,0,96.56,43.32,96.56,96.56s-43.32,96.56-96.56,96.56-96.56-43.32-96.56-96.56S106.7,45.44,159.94,45.44m0-1.6c-54.21,0-98.16,43.95-98.16,98.16s43.95,98.16,98.16,98.16,98.16-43.95,98.16-98.16-43.95-98.16-98.16-98.16h0Z"/><path class="cls-1" d="M159.94,44.99c27.6,0,50.05,43.51,50.05,97s-22.45,97-50.05,97-50.05-43.51-50.05-97,22.45-97,50.05-97m0-1.16c-28.28,0-51.21,43.95-51.21,98.16s22.93,98.16,51.21,98.16,51.21-43.95,51.21-98.16-22.93-98.16-51.21-98.16h0Z"/><rect class="cls-1" x="61.78" y="141.45" width="196.32" height="1.1"/><rect class="cls-1" x="159.39" y="43.84" width="1.1" height="196.32"/></svg>